<mxfile host="app.diagrams.net" modified="2022-04-14T18:21:56.319Z" agent="5.0 (Macintosh; Intel Mac OS X 10_15_7) AppleWebKit/537.36 (KHTML, like Gecko) Chrome/100.0.4896.75 Safari/537.36" etag="EHd9Cz3GYCBhekroc33R" version="17.4.2" type="github">
  <diagram id="kY7czSaUqKnEQBzbAw4K" name="Page-1">
    <mxGraphModel dx="1388" dy="1011" grid="1" gridSize="10" guides="1" tooltips="1" connect="1" arrows="1" fold="1" page="1" pageScale="1" pageWidth="1100" pageHeight="850" background="#FFFFFF" math="0" shadow="0">
      <root>
        <mxCell id="0" />
        <mxCell id="1" parent="0" />
        <mxCell id="MVzD_Kj5mdFjf6nczZ-t-2" value="Load Manager Container - Apr 13, 2022" style="swimlane;" parent="1" vertex="1">
          <mxGeometry x="10" y="40" width="1080" height="760" as="geometry">
            <mxRectangle x="60" y="40" width="170" height="23" as="alternateBounds" />
          </mxGeometry>
        </mxCell>
        <mxCell id="MVzD_Kj5mdFjf6nczZ-t-6" value="Load Data Card" style="rounded=1;whiteSpace=wrap;html=1;" parent="MVzD_Kj5mdFjf6nczZ-t-2" vertex="1">
          <mxGeometry x="20" y="590" width="120" height="60" as="geometry" />
        </mxCell>
        <mxCell id="MVzD_Kj5mdFjf6nczZ-t-5" value="Filter Bar" style="rounded=1;whiteSpace=wrap;html=1;" parent="MVzD_Kj5mdFjf6nczZ-t-2" vertex="1">
          <mxGeometry x="160" y="590" width="120" height="60" as="geometry" />
        </mxCell>
        <mxCell id="MVzD_Kj5mdFjf6nczZ-t-58" value="" style="edgeStyle=orthogonalEdgeStyle;rounded=0;orthogonalLoop=1;jettySize=auto;html=1;entryX=1;entryY=0.5;entryDx=0;entryDy=0;" parent="MVzD_Kj5mdFjf6nczZ-t-2" target="MVzD_Kj5mdFjf6nczZ-t-31" edge="1">
          <mxGeometry relative="1" as="geometry">
            <mxPoint x="205" y="169.52" as="sourcePoint" />
            <mxPoint x="185" y="79.52" as="targetPoint" />
            <Array as="points">
              <mxPoint x="205" y="79.52" />
            </Array>
          </mxGeometry>
        </mxCell>
        <mxCell id="MVzD_Kj5mdFjf6nczZ-t-77" value="GET" style="edgeLabel;html=1;align=center;verticalAlign=middle;resizable=0;points=[];" parent="MVzD_Kj5mdFjf6nczZ-t-58" vertex="1" connectable="0">
          <mxGeometry x="-0.1302" y="1" relative="1" as="geometry">
            <mxPoint x="1" as="offset" />
          </mxGeometry>
        </mxCell>
        <mxCell id="MVzD_Kj5mdFjf6nczZ-t-59" style="edgeStyle=orthogonalEdgeStyle;rounded=0;orthogonalLoop=1;jettySize=auto;html=1;exitX=0.5;exitY=0;exitDx=0;exitDy=0;entryX=1;entryY=0.5;entryDx=0;entryDy=0;" parent="MVzD_Kj5mdFjf6nczZ-t-2" target="MVzD_Kj5mdFjf6nczZ-t-32" edge="1">
          <mxGeometry relative="1" as="geometry">
            <mxPoint x="235" y="429.52" as="sourcePoint" />
            <Array as="points">
              <mxPoint x="205" y="429.52" />
              <mxPoint x="205" y="169.52" />
            </Array>
          </mxGeometry>
        </mxCell>
        <mxCell id="MVzD_Kj5mdFjf6nczZ-t-61" value="" style="edgeStyle=orthogonalEdgeStyle;rounded=0;orthogonalLoop=1;jettySize=auto;html=1;entryX=0;entryY=0.5;entryDx=0;entryDy=0;" parent="MVzD_Kj5mdFjf6nczZ-t-2" target="MVzD_Kj5mdFjf6nczZ-t-34" edge="1">
          <mxGeometry relative="1" as="geometry">
            <mxPoint x="235" y="429.52" as="sourcePoint" />
            <mxPoint x="285" y="169.52" as="targetPoint" />
            <Array as="points">
              <mxPoint x="230" y="430" />
              <mxPoint x="230" y="170" />
            </Array>
          </mxGeometry>
        </mxCell>
        <mxCell id="MVzD_Kj5mdFjf6nczZ-t-78" value="GET" style="edgeLabel;html=1;align=center;verticalAlign=middle;resizable=0;points=[];" parent="MVzD_Kj5mdFjf6nczZ-t-61" vertex="1" connectable="0">
          <mxGeometry x="0.3905" y="1" relative="1" as="geometry">
            <mxPoint as="offset" />
          </mxGeometry>
        </mxCell>
        <mxCell id="MVzD_Kj5mdFjf6nczZ-t-68" value="" style="edgeStyle=orthogonalEdgeStyle;rounded=0;orthogonalLoop=1;jettySize=auto;html=1;entryX=0;entryY=0.5;entryDx=0;entryDy=0;" parent="MVzD_Kj5mdFjf6nczZ-t-2" source="MVzD_Kj5mdFjf6nczZ-t-8" target="MVzD_Kj5mdFjf6nczZ-t-35" edge="1">
          <mxGeometry relative="1" as="geometry">
            <mxPoint x="240" y="260" as="targetPoint" />
            <Array as="points">
              <mxPoint x="230" y="260" />
            </Array>
          </mxGeometry>
        </mxCell>
        <mxCell id="MVzD_Kj5mdFjf6nczZ-t-8" value="Load Overview" style="rounded=1;whiteSpace=wrap;html=1;" parent="MVzD_Kj5mdFjf6nczZ-t-2" vertex="1">
          <mxGeometry x="20" y="430" width="460" height="60" as="geometry" />
        </mxCell>
        <mxCell id="MVzD_Kj5mdFjf6nczZ-t-9" value="" style="endArrow=classic;html=1;rounded=0;exitX=0.117;exitY=1;exitDx=0;exitDy=0;exitPerimeter=0;entryX=0.446;entryY=0.008;entryDx=0;entryDy=0;entryPerimeter=0;" parent="MVzD_Kj5mdFjf6nczZ-t-2" source="MVzD_Kj5mdFjf6nczZ-t-8" target="MVzD_Kj5mdFjf6nczZ-t-6" edge="1">
          <mxGeometry relative="1" as="geometry">
            <mxPoint x="330" y="660" as="sourcePoint" />
            <mxPoint x="108" y="590" as="targetPoint" />
          </mxGeometry>
        </mxCell>
        <mxCell id="MVzD_Kj5mdFjf6nczZ-t-10" value="UI mapper function" style="edgeLabel;resizable=0;html=1;align=center;verticalAlign=middle;" parent="MVzD_Kj5mdFjf6nczZ-t-9" connectable="0" vertex="1">
          <mxGeometry relative="1" as="geometry" />
        </mxCell>
        <mxCell id="MVzD_Kj5mdFjf6nczZ-t-15" value="Filter state" style="endArrow=classic;startArrow=classic;html=1;rounded=0;exitX=0.529;exitY=0.008;exitDx=0;exitDy=0;exitPerimeter=0;" parent="MVzD_Kj5mdFjf6nczZ-t-2" source="MVzD_Kj5mdFjf6nczZ-t-5" edge="1">
          <mxGeometry width="50" height="50" relative="1" as="geometry">
            <mxPoint x="273" y="590" as="sourcePoint" />
            <mxPoint x="223" y="490" as="targetPoint" />
          </mxGeometry>
        </mxCell>
        <mxCell id="MVzD_Kj5mdFjf6nczZ-t-17" value="BIN Notification Settings" style="rounded=1;whiteSpace=wrap;html=1;" parent="MVzD_Kj5mdFjf6nczZ-t-2" vertex="1">
          <mxGeometry x="300" y="590" width="180" height="60" as="geometry" />
        </mxCell>
        <mxCell id="MVzD_Kj5mdFjf6nczZ-t-20" value="Account type&lt;br&gt;Email and phone&lt;br&gt;Notification selections" style="endArrow=classic;html=1;rounded=0;entryX=0.25;entryY=0;entryDx=0;entryDy=0;exitX=0.707;exitY=1.017;exitDx=0;exitDy=0;exitPerimeter=0;" parent="MVzD_Kj5mdFjf6nczZ-t-2" source="MVzD_Kj5mdFjf6nczZ-t-8" target="MVzD_Kj5mdFjf6nczZ-t-17" edge="1">
          <mxGeometry width="50" height="50" relative="1" as="geometry">
            <mxPoint x="300" y="490" as="sourcePoint" />
            <mxPoint x="350" y="440" as="targetPoint" />
          </mxGeometry>
        </mxCell>
        <mxCell id="MVzD_Kj5mdFjf6nczZ-t-21" value="Notification&lt;br&gt;selections" style="endArrow=classic;html=1;rounded=0;exitX=0.803;exitY=-0.017;exitDx=0;exitDy=0;exitPerimeter=0;entryX=0.921;entryY=1;entryDx=0;entryDy=0;entryPerimeter=0;" parent="MVzD_Kj5mdFjf6nczZ-t-2" source="MVzD_Kj5mdFjf6nczZ-t-17" target="MVzD_Kj5mdFjf6nczZ-t-8" edge="1">
          <mxGeometry width="50" height="50" relative="1" as="geometry">
            <mxPoint x="300" y="480" as="sourcePoint" />
            <mxPoint x="425" y="490" as="targetPoint" />
          </mxGeometry>
        </mxCell>
        <mxCell id="MVzD_Kj5mdFjf6nczZ-t-48" value="" style="edgeStyle=orthogonalEdgeStyle;rounded=0;orthogonalLoop=1;jettySize=auto;html=1;" parent="MVzD_Kj5mdFjf6nczZ-t-2" source="MVzD_Kj5mdFjf6nczZ-t-31" edge="1">
          <mxGeometry relative="1" as="geometry">
            <mxPoint x="35" y="429.52" as="targetPoint" />
          </mxGeometry>
        </mxCell>
        <mxCell id="MVzD_Kj5mdFjf6nczZ-t-79" value="Equipment&lt;br&gt;list" style="edgeLabel;html=1;align=center;verticalAlign=middle;resizable=0;points=[];" parent="MVzD_Kj5mdFjf6nczZ-t-48" vertex="1" connectable="0">
          <mxGeometry x="-0.6534" y="1" relative="1" as="geometry">
            <mxPoint as="offset" />
          </mxGeometry>
        </mxCell>
        <mxCell id="MVzD_Kj5mdFjf6nczZ-t-31" value="Equipment" style="ellipse;whiteSpace=wrap;html=1;" parent="MVzD_Kj5mdFjf6nczZ-t-2" vertex="1">
          <mxGeometry x="60" y="39.52" width="120" height="80" as="geometry" />
        </mxCell>
        <mxCell id="MVzD_Kj5mdFjf6nczZ-t-46" value="" style="edgeStyle=orthogonalEdgeStyle;rounded=0;orthogonalLoop=1;jettySize=auto;html=1;" parent="MVzD_Kj5mdFjf6nczZ-t-2" source="MVzD_Kj5mdFjf6nczZ-t-32" edge="1">
          <mxGeometry relative="1" as="geometry">
            <mxPoint x="35" y="429.52" as="targetPoint" />
          </mxGeometry>
        </mxCell>
        <mxCell id="MVzD_Kj5mdFjf6nczZ-t-80" value="Mode&lt;br&gt;list" style="edgeLabel;html=1;align=center;verticalAlign=middle;resizable=0;points=[];" parent="MVzD_Kj5mdFjf6nczZ-t-46" vertex="1" connectable="0">
          <mxGeometry x="-0.6141" relative="1" as="geometry">
            <mxPoint as="offset" />
          </mxGeometry>
        </mxCell>
        <mxCell id="MVzD_Kj5mdFjf6nczZ-t-32" value="Transportation&lt;br&gt;mode" style="ellipse;whiteSpace=wrap;html=1;" parent="MVzD_Kj5mdFjf6nczZ-t-2" vertex="1">
          <mxGeometry x="60" y="129.52" width="120" height="80" as="geometry" />
        </mxCell>
        <mxCell id="MVzD_Kj5mdFjf6nczZ-t-33" value="Carrier load" style="ellipse;whiteSpace=wrap;html=1;" parent="MVzD_Kj5mdFjf6nczZ-t-2" vertex="1">
          <mxGeometry x="60" y="219.52" width="120" height="80" as="geometry" />
        </mxCell>
        <mxCell id="MVzD_Kj5mdFjf6nczZ-t-63" value="" style="edgeStyle=orthogonalEdgeStyle;rounded=0;orthogonalLoop=1;jettySize=auto;html=1;entryX=0.935;entryY=0;entryDx=0;entryDy=0;entryPerimeter=0;" parent="MVzD_Kj5mdFjf6nczZ-t-2" source="MVzD_Kj5mdFjf6nczZ-t-34" target="MVzD_Kj5mdFjf6nczZ-t-8" edge="1">
          <mxGeometry relative="1" as="geometry">
            <mxPoint x="445" y="420" as="targetPoint" />
            <Array as="points">
              <mxPoint x="450" y="170" />
            </Array>
          </mxGeometry>
        </mxCell>
        <mxCell id="MVzD_Kj5mdFjf6nczZ-t-64" value="Account type" style="edgeLabel;html=1;align=center;verticalAlign=middle;resizable=0;points=[];" parent="MVzD_Kj5mdFjf6nczZ-t-63" vertex="1" connectable="0">
          <mxGeometry x="-0.54" relative="1" as="geometry">
            <mxPoint as="offset" />
          </mxGeometry>
        </mxCell>
        <mxCell id="MVzD_Kj5mdFjf6nczZ-t-34" value="Authentication" style="ellipse;whiteSpace=wrap;html=1;" parent="MVzD_Kj5mdFjf6nczZ-t-2" vertex="1">
          <mxGeometry x="280" y="129.52" width="120" height="80" as="geometry" />
        </mxCell>
        <mxCell id="MVzD_Kj5mdFjf6nczZ-t-133" value="" style="edgeStyle=orthogonalEdgeStyle;rounded=0;orthogonalLoop=1;jettySize=auto;html=1;" parent="MVzD_Kj5mdFjf6nczZ-t-2" source="MVzD_Kj5mdFjf6nczZ-t-35" edge="1">
          <mxGeometry relative="1" as="geometry">
            <mxPoint x="450" y="430" as="targetPoint" />
          </mxGeometry>
        </mxCell>
        <mxCell id="MVzD_Kj5mdFjf6nczZ-t-134" value="Email and phone" style="edgeLabel;html=1;align=center;verticalAlign=middle;resizable=0;points=[];" parent="MVzD_Kj5mdFjf6nczZ-t-133" vertex="1" connectable="0">
          <mxGeometry x="-0.288" relative="1" as="geometry">
            <mxPoint as="offset" />
          </mxGeometry>
        </mxCell>
        <mxCell id="MVzD_Kj5mdFjf6nczZ-t-35" value="Account management" style="ellipse;whiteSpace=wrap;html=1;" parent="MVzD_Kj5mdFjf6nczZ-t-2" vertex="1">
          <mxGeometry x="280" y="219.52" width="120" height="80" as="geometry" />
        </mxCell>
        <mxCell id="MVzD_Kj5mdFjf6nczZ-t-36" value="User preferences" style="ellipse;whiteSpace=wrap;html=1;" parent="MVzD_Kj5mdFjf6nczZ-t-2" vertex="1">
          <mxGeometry x="280" y="309.52" width="120" height="80" as="geometry" />
        </mxCell>
        <mxCell id="MVzD_Kj5mdFjf6nczZ-t-42" value="Query from filter" style="endArrow=classic;html=1;rounded=0;entryX=1;entryY=1;entryDx=0;entryDy=0;exitX=0.336;exitY=0.008;exitDx=0;exitDy=0;exitPerimeter=0;" parent="MVzD_Kj5mdFjf6nczZ-t-2" target="MVzD_Kj5mdFjf6nczZ-t-33" edge="1">
          <mxGeometry width="50" height="50" relative="1" as="geometry">
            <mxPoint x="162.83999999999992" y="430" as="sourcePoint" />
            <mxPoint x="485" y="409.52" as="targetPoint" />
          </mxGeometry>
        </mxCell>
        <mxCell id="MVzD_Kj5mdFjf6nczZ-t-43" value="Saved and &lt;br&gt;awarded loads" style="endArrow=classic;html=1;rounded=0;entryX=0.138;entryY=-0.017;entryDx=0;entryDy=0;entryPerimeter=0;" parent="MVzD_Kj5mdFjf6nczZ-t-2" edge="1">
          <mxGeometry width="50" height="50" relative="1" as="geometry">
            <mxPoint x="76" y="289.52" as="sourcePoint" />
            <mxPoint x="75.72000000000003" y="428.5" as="targetPoint" />
          </mxGeometry>
        </mxCell>
        <mxCell id="MVzD_Kj5mdFjf6nczZ-t-106" value="Load id or&lt;br&gt;carrier load id" style="edgeStyle=orthogonalEdgeStyle;rounded=0;orthogonalLoop=1;jettySize=auto;html=1;entryX=0;entryY=0.5;entryDx=0;entryDy=0;" parent="MVzD_Kj5mdFjf6nczZ-t-2" source="MVzD_Kj5mdFjf6nczZ-t-81" target="MVzD_Kj5mdFjf6nczZ-t-98" edge="1">
          <mxGeometry x="-0.2353" relative="1" as="geometry">
            <mxPoint x="820" y="114.99999999999999" as="targetPoint" />
            <Array as="points">
              <mxPoint x="850" y="135.48" />
            </Array>
            <mxPoint as="offset" />
          </mxGeometry>
        </mxCell>
        <mxCell id="MVzD_Kj5mdFjf6nczZ-t-81" value="Route Load Details" style="whiteSpace=wrap;html=1;rounded=1;" parent="MVzD_Kj5mdFjf6nczZ-t-2" vertex="1">
          <mxGeometry x="590" y="225" width="460" height="60" as="geometry" />
        </mxCell>
        <mxCell id="MVzD_Kj5mdFjf6nczZ-t-82" value="onClick(loadId / carrierLoadId)" style="edgeStyle=orthogonalEdgeStyle;rounded=0;orthogonalLoop=1;jettySize=auto;html=1;" parent="MVzD_Kj5mdFjf6nczZ-t-2" source="MVzD_Kj5mdFjf6nczZ-t-6" target="MVzD_Kj5mdFjf6nczZ-t-81" edge="1">
          <mxGeometry x="-0.3603" relative="1" as="geometry">
            <Array as="points">
              <mxPoint x="80" y="730" />
              <mxPoint x="640" y="730" />
            </Array>
            <mxPoint as="offset" />
          </mxGeometry>
        </mxCell>
        <mxCell id="MVzD_Kj5mdFjf6nczZ-t-84" value="Route details card" style="whiteSpace=wrap;html=1;rounded=1;" parent="MVzD_Kj5mdFjf6nczZ-t-2" vertex="1">
          <mxGeometry x="910" y="315" width="120" height="60" as="geometry" />
        </mxCell>
        <mxCell id="MVzD_Kj5mdFjf6nczZ-t-85" value="" style="edgeStyle=orthogonalEdgeStyle;rounded=0;orthogonalLoop=1;jettySize=auto;html=1;" parent="MVzD_Kj5mdFjf6nczZ-t-2" source="MVzD_Kj5mdFjf6nczZ-t-81" target="MVzD_Kj5mdFjf6nczZ-t-84" edge="1">
          <mxGeometry relative="1" as="geometry">
            <Array as="points">
              <mxPoint x="820" y="345.48" />
            </Array>
          </mxGeometry>
        </mxCell>
        <mxCell id="MVzD_Kj5mdFjf6nczZ-t-86" value="Load details card" style="whiteSpace=wrap;html=1;rounded=1;" parent="MVzD_Kj5mdFjf6nczZ-t-2" vertex="1">
          <mxGeometry x="910" y="385" width="120" height="60" as="geometry" />
        </mxCell>
        <mxCell id="MVzD_Kj5mdFjf6nczZ-t-87" value="" style="edgeStyle=orthogonalEdgeStyle;rounded=0;orthogonalLoop=1;jettySize=auto;html=1;" parent="MVzD_Kj5mdFjf6nczZ-t-2" source="MVzD_Kj5mdFjf6nczZ-t-81" target="MVzD_Kj5mdFjf6nczZ-t-86" edge="1">
          <mxGeometry relative="1" as="geometry">
            <Array as="points">
              <mxPoint x="820" y="415.48" />
            </Array>
          </mxGeometry>
        </mxCell>
        <mxCell id="MVzD_Kj5mdFjf6nczZ-t-88" value="Special information" style="whiteSpace=wrap;html=1;rounded=1;" parent="MVzD_Kj5mdFjf6nczZ-t-2" vertex="1">
          <mxGeometry x="910" y="455.48" width="120" height="60" as="geometry" />
        </mxCell>
        <mxCell id="MVzD_Kj5mdFjf6nczZ-t-89" value="" style="edgeStyle=orthogonalEdgeStyle;rounded=0;orthogonalLoop=1;jettySize=auto;html=1;" parent="MVzD_Kj5mdFjf6nczZ-t-2" source="MVzD_Kj5mdFjf6nczZ-t-81" target="MVzD_Kj5mdFjf6nczZ-t-88" edge="1">
          <mxGeometry relative="1" as="geometry">
            <Array as="points">
              <mxPoint x="820" y="485.48" />
            </Array>
          </mxGeometry>
        </mxCell>
        <mxCell id="MVzD_Kj5mdFjf6nczZ-t-90" value="Broker information" style="whiteSpace=wrap;html=1;rounded=1;" parent="MVzD_Kj5mdFjf6nczZ-t-2" vertex="1">
          <mxGeometry x="650" y="515.48" width="120" height="60" as="geometry" />
        </mxCell>
        <mxCell id="MVzD_Kj5mdFjf6nczZ-t-91" value="" style="edgeStyle=orthogonalEdgeStyle;rounded=0;orthogonalLoop=1;jettySize=auto;html=1;" parent="MVzD_Kj5mdFjf6nczZ-t-2" source="MVzD_Kj5mdFjf6nczZ-t-81" target="MVzD_Kj5mdFjf6nczZ-t-90" edge="1">
          <mxGeometry relative="1" as="geometry">
            <Array as="points">
              <mxPoint x="820" y="545.48" />
            </Array>
          </mxGeometry>
        </mxCell>
        <mxCell id="MVzD_Kj5mdFjf6nczZ-t-92" value="Tender information&lt;br&gt;and rate confirmation" style="whiteSpace=wrap;html=1;rounded=1;" parent="MVzD_Kj5mdFjf6nczZ-t-2" vertex="1">
          <mxGeometry x="910" y="555.48" width="120" height="60" as="geometry" />
        </mxCell>
        <mxCell id="MVzD_Kj5mdFjf6nczZ-t-93" value="" style="edgeStyle=orthogonalEdgeStyle;rounded=0;orthogonalLoop=1;jettySize=auto;html=1;" parent="MVzD_Kj5mdFjf6nczZ-t-2" source="MVzD_Kj5mdFjf6nczZ-t-81" target="MVzD_Kj5mdFjf6nczZ-t-92" edge="1">
          <mxGeometry relative="1" as="geometry">
            <Array as="points">
              <mxPoint x="820" y="585.48" />
            </Array>
          </mxGeometry>
        </mxCell>
        <mxCell id="MVzD_Kj5mdFjf6nczZ-t-94" value="GraphQL&lt;br&gt;Broker profile" style="ellipse;whiteSpace=wrap;html=1;rounded=1;" parent="MVzD_Kj5mdFjf6nczZ-t-2" vertex="1">
          <mxGeometry x="650" y="655.48" width="120" height="60" as="geometry" />
        </mxCell>
        <mxCell id="MVzD_Kj5mdFjf6nczZ-t-95" value="" style="edgeStyle=orthogonalEdgeStyle;rounded=0;orthogonalLoop=1;jettySize=auto;html=1;" parent="MVzD_Kj5mdFjf6nczZ-t-2" source="MVzD_Kj5mdFjf6nczZ-t-90" target="MVzD_Kj5mdFjf6nczZ-t-94" edge="1">
          <mxGeometry relative="1" as="geometry" />
        </mxCell>
        <mxCell id="MVzD_Kj5mdFjf6nczZ-t-96" value="Tendering" style="ellipse;whiteSpace=wrap;html=1;rounded=1;" parent="MVzD_Kj5mdFjf6nczZ-t-2" vertex="1">
          <mxGeometry x="910" y="675.48" width="120" height="60" as="geometry" />
        </mxCell>
        <mxCell id="MVzD_Kj5mdFjf6nczZ-t-97" value="" style="edgeStyle=orthogonalEdgeStyle;rounded=0;orthogonalLoop=1;jettySize=auto;html=1;" parent="MVzD_Kj5mdFjf6nczZ-t-2" source="MVzD_Kj5mdFjf6nczZ-t-92" target="MVzD_Kj5mdFjf6nczZ-t-96" edge="1">
          <mxGeometry relative="1" as="geometry" />
        </mxCell>
        <mxCell id="MVzD_Kj5mdFjf6nczZ-t-104" value="" style="edgeStyle=orthogonalEdgeStyle;rounded=0;orthogonalLoop=1;jettySize=auto;html=1;" parent="MVzD_Kj5mdFjf6nczZ-t-2" source="MVzD_Kj5mdFjf6nczZ-t-98" edge="1">
          <mxGeometry relative="1" as="geometry">
            <mxPoint x="1040" y="224.99999999999997" as="targetPoint" />
          </mxGeometry>
        </mxCell>
        <mxCell id="MVzD_Kj5mdFjf6nczZ-t-107" value="Load details" style="edgeLabel;html=1;align=center;verticalAlign=middle;resizable=0;points=[];" parent="MVzD_Kj5mdFjf6nczZ-t-104" vertex="1" connectable="0">
          <mxGeometry x="0.163" relative="1" as="geometry">
            <mxPoint as="offset" />
          </mxGeometry>
        </mxCell>
        <mxCell id="MVzD_Kj5mdFjf6nczZ-t-98" value="Carrier Load" style="ellipse;whiteSpace=wrap;html=1;rounded=1;" parent="MVzD_Kj5mdFjf6nczZ-t-2" vertex="1">
          <mxGeometry x="890" y="105.48" width="120" height="60" as="geometry" />
        </mxCell>
        <mxCell id="MVzD_Kj5mdFjf6nczZ-t-108" value="" style="edgeStyle=orthogonalEdgeStyle;rounded=0;orthogonalLoop=1;jettySize=auto;html=1;entryX=1;entryY=0.5;entryDx=0;entryDy=0;exitX=0.435;exitY=-0.017;exitDx=0;exitDy=0;exitPerimeter=0;" parent="MVzD_Kj5mdFjf6nczZ-t-2" source="MVzD_Kj5mdFjf6nczZ-t-81" target="MVzD_Kj5mdFjf6nczZ-t-111" edge="1">
          <mxGeometry relative="1" as="geometry">
            <mxPoint x="830" y="204.99999999999997" as="sourcePoint" />
            <mxPoint x="770" y="75" as="targetPoint" />
            <Array as="points">
              <mxPoint x="790" y="75.48" />
            </Array>
          </mxGeometry>
        </mxCell>
        <mxCell id="MVzD_Kj5mdFjf6nczZ-t-109" value="GET" style="edgeLabel;html=1;align=center;verticalAlign=middle;resizable=0;points=[];" parent="MVzD_Kj5mdFjf6nczZ-t-108" vertex="1" connectable="0">
          <mxGeometry x="-0.1302" y="1" relative="1" as="geometry">
            <mxPoint x="1" as="offset" />
          </mxGeometry>
        </mxCell>
        <mxCell id="MVzD_Kj5mdFjf6nczZ-t-115" value="" style="edgeStyle=orthogonalEdgeStyle;rounded=0;orthogonalLoop=1;jettySize=auto;html=1;entryX=0.043;entryY=0.008;entryDx=0;entryDy=0;entryPerimeter=0;" parent="MVzD_Kj5mdFjf6nczZ-t-2" source="MVzD_Kj5mdFjf6nczZ-t-111" target="MVzD_Kj5mdFjf6nczZ-t-81" edge="1">
          <mxGeometry relative="1" as="geometry">
            <mxPoint x="610" y="215.48" as="targetPoint" />
            <Array as="points">
              <mxPoint x="610" y="75.48" />
            </Array>
          </mxGeometry>
        </mxCell>
        <mxCell id="MVzD_Kj5mdFjf6nczZ-t-119" value="Equipment&lt;br&gt;list" style="edgeLabel;html=1;align=center;verticalAlign=middle;resizable=0;points=[];" parent="MVzD_Kj5mdFjf6nczZ-t-115" vertex="1" connectable="0">
          <mxGeometry x="-0.2009" y="1" relative="1" as="geometry">
            <mxPoint as="offset" />
          </mxGeometry>
        </mxCell>
        <mxCell id="MVzD_Kj5mdFjf6nczZ-t-111" value="Equipment" style="ellipse;whiteSpace=wrap;html=1;" parent="MVzD_Kj5mdFjf6nczZ-t-2" vertex="1">
          <mxGeometry x="645" y="35" width="120" height="80" as="geometry" />
        </mxCell>
        <mxCell id="MVzD_Kj5mdFjf6nczZ-t-118" value="" style="edgeStyle=orthogonalEdgeStyle;rounded=0;orthogonalLoop=1;jettySize=auto;html=1;" parent="MVzD_Kj5mdFjf6nczZ-t-2" source="MVzD_Kj5mdFjf6nczZ-t-113" edge="1">
          <mxGeometry relative="1" as="geometry">
            <mxPoint x="610" y="225.48" as="targetPoint" />
            <Array as="points">
              <mxPoint x="610" y="165.48" />
              <mxPoint x="610" y="165.48" />
            </Array>
          </mxGeometry>
        </mxCell>
        <mxCell id="MVzD_Kj5mdFjf6nczZ-t-120" value="Mode&lt;br&gt;list" style="edgeLabel;html=1;align=center;verticalAlign=middle;resizable=0;points=[];" parent="MVzD_Kj5mdFjf6nczZ-t-118" vertex="1" connectable="0">
          <mxGeometry x="0.0157" relative="1" as="geometry">
            <mxPoint y="7" as="offset" />
          </mxGeometry>
        </mxCell>
        <mxCell id="MVzD_Kj5mdFjf6nczZ-t-113" value="Transportation&lt;br&gt;mode" style="ellipse;whiteSpace=wrap;html=1;" parent="MVzD_Kj5mdFjf6nczZ-t-2" vertex="1">
          <mxGeometry x="645" y="125.00000000000001" width="120" height="80" as="geometry" />
        </mxCell>
        <mxCell id="MVzD_Kj5mdFjf6nczZ-t-130" value="onClick()" style="edgeStyle=orthogonalEdgeStyle;rounded=0;orthogonalLoop=1;jettySize=auto;html=1;entryX=1;entryY=0.5;entryDx=0;entryDy=0;" parent="MVzD_Kj5mdFjf6nczZ-t-2" source="MVzD_Kj5mdFjf6nczZ-t-125" target="MVzD_Kj5mdFjf6nczZ-t-8" edge="1">
          <mxGeometry x="-0.429" relative="1" as="geometry">
            <mxPoint x="500" y="460" as="targetPoint" />
            <Array as="points">
              <mxPoint x="520" y="335" />
              <mxPoint x="520" y="460" />
            </Array>
            <mxPoint as="offset" />
          </mxGeometry>
        </mxCell>
        <mxCell id="MVzD_Kj5mdFjf6nczZ-t-131" value="Back" style="edgeLabel;html=1;align=center;verticalAlign=middle;resizable=0;points=[];" parent="MVzD_Kj5mdFjf6nczZ-t-130" vertex="1" connectable="0">
          <mxGeometry x="-0.4417" relative="1" as="geometry">
            <mxPoint x="-47" y="55" as="offset" />
          </mxGeometry>
        </mxCell>
        <mxCell id="MVzD_Kj5mdFjf6nczZ-t-125" value="Back button" style="whiteSpace=wrap;html=1;rounded=1;" parent="MVzD_Kj5mdFjf6nczZ-t-2" vertex="1">
          <mxGeometry x="650" y="319.52" width="110" height="30.48" as="geometry" />
        </mxCell>
        <mxCell id="MVzD_Kj5mdFjf6nczZ-t-126" value="" style="edgeStyle=orthogonalEdgeStyle;rounded=0;orthogonalLoop=1;jettySize=auto;html=1;" parent="MVzD_Kj5mdFjf6nczZ-t-2" source="MVzD_Kj5mdFjf6nczZ-t-81" target="MVzD_Kj5mdFjf6nczZ-t-125" edge="1">
          <mxGeometry relative="1" as="geometry">
            <Array as="points">
              <mxPoint x="820" y="335" />
            </Array>
          </mxGeometry>
        </mxCell>
        <mxCell id="MVzD_Kj5mdFjf6nczZ-t-127" value="Last updated" style="whiteSpace=wrap;html=1;rounded=1;" parent="MVzD_Kj5mdFjf6nczZ-t-2" vertex="1">
          <mxGeometry x="650" y="420.48" width="110" height="35" as="geometry" />
        </mxCell>
        <mxCell id="MVzD_Kj5mdFjf6nczZ-t-128" value="" style="edgeStyle=orthogonalEdgeStyle;rounded=0;orthogonalLoop=1;jettySize=auto;html=1;" parent="MVzD_Kj5mdFjf6nczZ-t-2" source="MVzD_Kj5mdFjf6nczZ-t-81" target="MVzD_Kj5mdFjf6nczZ-t-127" edge="1">
          <mxGeometry relative="1" as="geometry">
            <Array as="points">
              <mxPoint x="820" y="440" />
            </Array>
          </mxGeometry>
        </mxCell>
        <mxCell id="MVzD_Kj5mdFjf6nczZ-t-76" value="Filter and notification settings" style="endArrow=classic;startArrow=classic;html=1;rounded=0;exitX=0.695;exitY=0.008;exitDx=0;exitDy=0;exitPerimeter=0;entryX=0.5;entryY=1;entryDx=0;entryDy=0;" parent="MVzD_Kj5mdFjf6nczZ-t-2" source="MVzD_Kj5mdFjf6nczZ-t-8" target="MVzD_Kj5mdFjf6nczZ-t-36" edge="1">
          <mxGeometry width="50" height="50" relative="1" as="geometry">
            <mxPoint x="420" y="440" as="sourcePoint" />
            <mxPoint x="320" y="390" as="targetPoint" />
          </mxGeometry>
        </mxCell>
        <mxCell id="X2OOsXLJL_KjvOpTMQaA-1" value="Load Status" style="whiteSpace=wrap;html=1;rounded=1;" vertex="1" parent="MVzD_Kj5mdFjf6nczZ-t-2">
          <mxGeometry x="650" y="365" width="120" height="35" as="geometry" />
        </mxCell>
        <mxCell id="X2OOsXLJL_KjvOpTMQaA-2" value="" style="edgeStyle=orthogonalEdgeStyle;rounded=0;orthogonalLoop=1;jettySize=auto;html=1;" edge="1" parent="MVzD_Kj5mdFjf6nczZ-t-2" source="MVzD_Kj5mdFjf6nczZ-t-81" target="X2OOsXLJL_KjvOpTMQaA-1">
          <mxGeometry relative="1" as="geometry">
            <Array as="points">
              <mxPoint x="820" y="380" />
            </Array>
          </mxGeometry>
        </mxCell>
      </root>
    </mxGraphModel>
  </diagram>
</mxfile>
